<svg xmlns="http://www.w3.org/2000/svg" width="458" height="458" viewBox="0 0 458 458" version="1.1">
	<path d="M 211 0.979 C 180.071 3.662, 153.226 11.272, 126 25.074 C 81.583 47.590, 47.563 81.608, 25.070 126 C 8.146 159.402, 0.635 191.094, 0.660 229 C 0.678 256.788, 3.678 275.786, 12.111 301.500 C 28.109 350.282, 61.174 392.925, 105.522 421.967 C 126.249 435.541, 157.812 448.328, 183.261 453.462 C 218.858 460.643, 258.324 459.179, 292.264 449.421 C 374.749 425.704, 436.804 358.162, 453.893 273.500 C 456.873 258.736, 459.319 232.898, 458.673 223 C 455.274 170.927, 439.735 127.747, 410.639 89.526 C 402.418 78.726, 384.646 60.525, 373.559 51.550 C 340.551 24.831, 300.447 7.667, 258 2.092 C 246.882 0.632, 221.837 0.038, 211 0.979 M 211.702 19.022 C 161.936 23.465, 115.990 44.989, 80.489 80.489 C 47.812 113.167, 27.621 153.219, 20.437 199.615 C 18.393 212.810, 18.100 242.648, 19.892 255 C 23.824 282.104, 31.404 305.935, 43.019 327.710 C 47.708 336.502, 56.845 351, 57.696 351 C 58.963 351, 63.805 347.854, 65.631 345.845 C 66.804 344.555, 70.288 339.387, 73.374 334.360 C 76.460 329.334, 80.653 323.756, 82.691 321.966 C 96.290 310.027, 118.758 311.135, 130.682 324.333 C 135.574 329.748, 139.038 337.854, 143.919 355.306 C 149.300 374.548, 152.259 382.327, 156.621 388.705 C 162.904 397.891, 171.131 400.035, 180.923 395.039 C 185.929 392.485, 189.047 388.166, 196.152 373.939 C 206.585 353.049, 216.889 344.778, 232.477 344.778 C 245.668 344.778, 253.027 349.610, 263.972 365.459 C 272.415 377.685, 275.766 380.244, 283.477 380.356 C 287.686 380.417, 289.760 379.820, 293.633 377.437 C 299.872 373.598, 303.815 367.658, 309.027 354.251 C 317.633 332.115, 324.250 322.960, 335.693 317.362 C 340.526 314.997, 342.735 314.532, 348.994 314.563 C 364.671 314.638, 374.054 322.491, 381.523 341.786 C 385.244 351.397, 389.941 356, 396.029 356 C 398.661 356, 410.435 337.951, 418.534 321.500 C 434.025 290.033, 440.892 257.674, 439.647 222 C 438.534 190.100, 431.881 163.661, 418.014 136.028 C 407.325 114.727, 397.095 100.300, 380.536 83.175 C 347.801 49.320, 308.250 28.599, 261.916 21.029 C 247.921 18.743, 225.065 17.829, 211.702 19.022 M 162.151 49.846 C 160.693 51.411, 156.856 56.550, 153.624 61.266 C 148.352 68.957, 147.816 70.204, 148.411 73.377 C 149.581 79.612, 156.193 82.769, 161.683 79.715 C 162.883 79.047, 166.923 74.226, 170.660 69.002 C 176.237 61.205, 177.455 58.812, 177.455 55.645 C 177.455 47.679, 167.636 43.958, 162.151 49.846 M 311.093 65.016 C 298.870 69.543, 296.545 71.445, 296.545 76.925 C 296.545 81.631, 299.003 84.722, 303.402 85.548 C 306.287 86.089, 321.918 81.341, 328.640 77.881 C 333.602 75.327, 334.338 68.184, 330.077 63.923 C 326.269 60.115, 323.967 60.248, 311.093 65.016 M 223.328 107.394 C 221.096 109.314, 220.545 110.629, 220.545 114.038 C 220.545 117.880, 221.025 118.713, 225.523 122.693 C 236.427 132.343, 240.785 135.200, 244.599 135.200 C 251.964 135.200, 256.182 126.206, 251.347 120.811 C 248.828 118, 236.011 107.583, 233.316 106.156 C 229.900 104.348, 226.360 104.786, 223.328 107.394 M 130.421 134.396 C 128.602 135.202, 126.799 137.071, 126.015 138.965 C 124.796 141.906, 125.008 143.132, 128.575 153.835 C 130.738 160.323, 133.450 166.499, 134.686 167.750 C 139.038 172.155, 147.893 169.547, 149.434 163.407 C 150.291 159.991, 143.583 139.333, 140.635 136.311 C 137.802 133.407, 134.187 132.729, 130.421 134.396 M 332 146.285 C 328.659 147.963, 319.372 170.362, 320.370 174.337 C 322 180.831, 331.370 183.532, 335.678 178.750 C 337.319 176.929, 342.063 165.653, 345.379 155.694 C 346.196 153.240, 343.631 147.408, 341.150 146.080 C 338.493 144.659, 335.087 144.735, 332 146.285 M 218.477 154.988 C 210.189 156.206, 201.959 158.945, 193.500 163.301 C 182.319 169.058, 169.066 182.311, 163.275 193.527 C 153.195 213.051, 151.592 233.690, 158.565 254.191 C 166.653 277.971, 186.351 295.647, 211.969 302.115 C 219.074 303.909, 222.376 304.174, 232.469 303.764 C 252.711 302.941, 267.834 296.332, 282.083 282.083 C 296.332 267.834, 302.941 252.711, 303.764 232.469 C 304.174 222.376, 303.909 219.074, 302.115 211.969 C 294.288 180.967, 270.496 159.374, 239.396 155.049 C 231.075 153.892, 226.035 153.877, 218.477 154.988 M 220.347 173.037 C 179.341 180.346, 159.331 226.416, 182.268 260.708 C 201.531 289.510, 241.300 294.519, 266.884 271.367 C 294.338 246.523, 291.620 203.352, 261.299 182.634 C 249.323 174.452, 233.378 170.715, 220.347 173.037 M 56.255 189.457 C 47.622 195.802, 46.011 197.425, 45.465 200.336 C 44.748 204.158, 46.856 209.347, 49.545 210.379 C 54.117 212.133, 57.775 210.940, 66.096 204.982 C 70.718 201.671, 75.513 197.821, 76.750 196.426 C 81.880 190.641, 77.985 182, 70.247 182 C 67.039 182, 64.723 183.234, 56.255 189.457 M 398.455 196.455 C 396.897 198.012, 396 200.050, 396 202.030 C 396 205.974, 403.624 225.624, 406.125 228.125 C 407.989 229.989, 413.212 230.624, 416.455 229.379 C 418.396 228.634, 421 223.888, 421 221.097 C 421 217.724, 412.947 198.029, 410.719 195.953 C 407.646 193.090, 401.571 193.338, 398.455 196.455 M 0.370 229 C 0.370 234.775, 0.535 237.137, 0.737 234.250 C 0.939 231.363, 0.939 226.637, 0.737 223.750 C 0.535 220.863, 0.370 223.225, 0.370 229 M 339.166 264.727 C 331.963 268.697, 328.379 271.300, 327.335 273.319 C 324.424 278.948, 328.586 286, 334.819 286 C 339.973 286, 358.525 275.819, 360.567 271.871 C 363.626 265.956, 359.312 258.982, 352.615 259.016 C 350.725 259.025, 345.436 261.271, 339.166 264.727 M 83.328 272.394 C 81.104 274.307, 80.545 275.633, 80.545 279 C 80.545 285.469, 83.402 287.344, 96.327 289.357 C 110.567 291.575, 111.653 291.501, 115.077 288.077 C 118.705 284.448, 118.922 280.184, 115.671 276.403 C 113.651 274.056, 111.887 273.455, 102.421 271.894 C 88.077 269.529, 86.614 269.568, 83.328 272.394 M 96.741 332.072 C 93.154 333.966, 91.451 336.163, 83.075 349.697 C 79.926 354.786, 74.959 359.884, 69.991 363.125 L 67.500 364.750 77 374.507 C 95.121 393.118, 113.774 407.016, 134.641 417.453 C 207.183 453.737, 291.572 445.950, 356.495 396.980 C 365.538 390.159, 385 372.478, 385 371.083 C 385 370.673, 382.787 368.903, 380.082 367.150 C 374.579 363.584, 370.033 357.378, 367.014 349.309 C 362.384 336.933, 359.197 333.038, 351.916 330.857 C 348.506 329.835, 347.529 329.995, 342.659 332.378 C 335.692 335.787, 331.454 341.800, 325.632 356.534 C 319.175 372.876, 315.373 379.759, 309.654 385.460 C 296.128 398.946, 276.410 400.413, 262.007 389.005 C 259.898 387.335, 255.006 381.317, 251.137 375.632 C 241.881 362.034, 236.961 358.870, 228.555 361.107 C 222.044 362.840, 216.349 369.650, 209.010 384.479 C 198.272 406.177, 188.983 413.250, 171 413.420 C 163.615 413.489, 161.750 413.132, 156.786 410.694 C 143.759 404.297, 138.187 393.851, 126.543 354 C 124.535 347.125, 121.790 339.821, 120.445 337.770 C 115.643 330.450, 104.767 327.836, 96.741 332.072" stroke="none" fill="black" fill-rule="evenodd"/>
</svg>