<?xml version="1.0" standalone="no"?>
<!DOCTYPE svg PUBLIC "-//W3C//DTD SVG 20010904//EN"
 "http://www.w3.org/TR/2001/REC-SVG-20010904/DTD/svg10.dtd">
<svg version="1.0" xmlns="http://www.w3.org/2000/svg"
 width="500.000000pt" height="500.000000pt" viewBox="0 0 500.000000 500.000000"
 preserveAspectRatio="xMidYMid meet">
<metadata>
Created by potrace 1.14, written by Peter Selinger 2001-2017
</metadata>
<g transform="translate(0.000000,500.000000) scale(0.100000,-0.100000)"
fill="#000000" stroke="none">
<path d="M1895 4871 c-38 -18 -105 -71 -105 -84 0 -3 -11 -23 -25 -43 -22 -33
-35 -40 -94 -55 -38 -10 -97 -31 -132 -47 -35 -17 -90 -41 -121 -55 -46 -21
-158 -94 -178 -116 -3 -3 -32 -19 -64 -36 -58 -29 -98 -34 -120 -15 -7 5 -41
12 -76 16 -36 3 -68 8 -72 11 -5 2 -8 1 -8 -4 0 -4 -19 -9 -41 -10 -56 -4
-140 -44 -184 -88 -41 -40 -83 -124 -87 -172 -2 -29 -4 -32 -28 -25 -14 4 -55
6 -92 5 -53 -1 -76 -7 -113 -29 -59 -34 -127 -104 -120 -122 3 -7 -4 -35 -16
-62 -34 -78 -16 -175 45 -248 15 -17 31 -30 36 -27 4 3 13 -2 20 -10 17 -20
119 -69 142 -68 10 1 18 0 18 -2 0 -3 -16 -51 -36 -107 -76 -217 -76 -218 -90
-328 -3 -25 -15 -79 -26 -120 -16 -57 -21 -114 -24 -245 -3 -93 -5 -174 -5
-180 -2 -22 12 -209 16 -216 3 -3 -4 -17 -14 -30 -32 -42 -43 -70 -47 -123 -3
-28 -8 -54 -13 -59 -15 -15 17 -96 55 -142 20 -25 58 -61 83 -79 53 -39 109
-135 161 -277 17 -46 42 -105 55 -131 l24 -48 -38 -20 c-49 -25 -137 -110
-152 -147 -16 -38 -19 -128 -6 -166 35 -108 71 -157 150 -207 26 -16 47 -28
47 -26 0 2 19 -2 43 -9 24 -7 51 -9 62 -4 32 12 49 11 38 -4 -6 -6 -11 -40
-12 -75 -3 -77 22 -134 81 -187 84 -77 180 -99 274 -64 78 29 94 42 151 121
l48 66 62 -30 c74 -35 174 -44 236 -20 48 19 87 65 87 102 0 40 11 43 67 19
26 -11 67 -27 90 -35 28 -10 66 -38 110 -82 69 -69 133 -121 138 -112 2 3 11
-2 21 -11 30 -26 148 -69 229 -82 80 -14 253 -14 320 0 37 8 41 7 60 -21 24
-35 116 -100 163 -114 18 -6 64 -10 100 -8 109 4 180 54 238 168 24 46 33 102
35 212 0 10 12 31 27 46 l28 27 2 -24 c3 -35 8 -41 60 -64 56 -26 157 -28 241
-5 l53 15 53 -57 c50 -54 116 -97 167 -108 80 -18 190 5 253 51 87 64 104 237
32 312 -17 18 -27 33 -21 33 5 0 15 -9 21 -20 15 -23 86 -44 129 -37 23 4 54
28 111 84 43 43 84 89 91 102 16 28 28 121 16 121 -5 0 -10 25 -10 56 -2 67
-34 119 -104 171 -25 19 -54 40 -65 48 -10 8 -23 15 -29 15 -5 0 9 16 31 35
52 45 85 101 113 195 13 41 33 87 46 102 24 30 60 118 69 170 3 18 8 49 11 68
3 19 15 64 26 100 27 88 29 101 33 210 2 52 7 113 11 135 8 42 8 111 1 320 -2
72 -1 135 3 140 16 20 26 129 15 166 -14 49 -70 133 -99 148 -15 8 -27 26 -30
45 -3 17 -8 42 -11 55 -8 45 -46 151 -56 156 -19 13 -8 23 26 23 140 0 260
104 280 242 4 25 8 46 10 48 6 6 -25 123 -41 154 -26 50 -100 112 -149 124
-96 24 -134 26 -174 11 -41 -17 -41 -17 -41 6 0 12 -11 40 -25 62 -14 22 -28
48 -31 57 -3 10 -36 32 -73 50 -61 31 -73 33 -166 33 -76 0 -107 -4 -130 -17
-68 -38 -79 -41 -95 -20 -26 32 -106 89 -164 116 -54 26 -106 48 -116 50 -3 1
-25 16 -50 35 -58 43 -184 101 -218 101 -10 0 -50 16 -90 35 -88 42 -159 63
-232 70 -30 3 -80 12 -110 20 -102 29 -174 36 -250 26 -25 -4 -68 -1 -95 5
-28 6 -120 12 -204 12 -146 1 -155 2 -190 26 -51 35 -77 43 -151 44 -44 1 -78
-5 -105 -17z m1225 -367 c0 -2 -7 -4 -15 -4 -8 0 -15 4 -15 10 0 5 7 7 15 4 8
-4 15 -8 15 -10z m56 -19 c10 -8 14 -15 7 -15 -6 0 -15 5 -18 10 -4 6 -10 8
-15 5 -5 -3 -11 -1 -15 5 -9 15 18 12 41 -5z m-1547 -59 c-8 -8 -36 -26 -64
-41 -77 -40 -172 -101 -262 -166 -74 -54 -114 -76 -86 -48 6 6 9 18 6 25 -10
26 98 108 157 120 8 2 16 8 18 13 2 6 9 11 15 11 7 0 35 20 62 45 34 30 60 45
80 46 17 0 41 4 55 8 31 10 38 5 19 -13z m1758 -35 c28 -10 64 -30 79 -45 24
-22 16 -19 -51 16 -109 56 -113 60 -28 29z m253 -137 c74 -31 155 -93 140
-108 -6 -6 -6 -14 1 -23 25 -29 -6 -10 -74 47 -91 77 -89 75 -129 101 -36 23
-32 22 62 -17z m-3370 -228 c0 -2 -8 -10 -17 -17 -16 -13 -17 -12 -4 4 13 16
21 21 21 13z m500 -424 c-8 -15 -22 -38 -30 -52 -26 -39 -90 -195 -126 -305
-18 -55 -33 -98 -33 -95 -3 23 32 165 48 191 19 32 92 197 89 202 -4 9 17 52
35 70 28 29 34 25 17 -11z m3498 -36 c3 -53 24 -117 52 -157 16 -22 18 -27 6
-23 -9 3 -16 12 -16 19 0 7 -15 25 -32 39 -50 39 -60 52 -73 89 -11 32 -10 38
9 56 34 34 51 27 54 -23z m-3691 -458 c-3 -7 -5 -2 -5 12 0 14 2 19 5 13 2 -7
2 -19 0 -25z m-12 -50 c-3 -17 -8 -34 -10 -38 -3 -4 -7 -32 -11 -61 -9 -75
-18 -78 -11 -4 6 60 24 135 33 135 2 0 2 -14 -1 -32z m3896 -271 c-10 -9 -11
-8 -5 6 3 10 9 15 12 12 3 -3 0 -11 -7 -18z m-887 -5 c3 -5 8 -35 11 -67 4
-35 15 -69 26 -83 10 -13 17 -27 15 -31 -2 -3 -7 -37 -11 -74 -3 -37 -8 -76
-10 -85 -6 -33 -36 -147 -42 -162 -3 -8 -7 -21 -9 -28 -4 -21 -87 -192 -91
-189 -2 2 3 20 12 40 20 48 53 171 62 232 4 28 8 141 8 253 0 149 3 202 12
202 6 0 14 -4 17 -8z m880 -114 c-5 -110 -16 -177 -24 -153 -5 12 -8 -8 -9
-50 -4 -159 -9 -203 -31 -265 -31 -85 -43 -98 -23 -24 8 32 17 68 19 79 2 11
6 32 10 48 3 17 1 27 -6 27 -6 0 -9 3 -7 8 6 8 18 116 23 187 4 77 6 83 14 45
6 -30 8 -26 9 28 0 37 -3 61 -8 57 -5 -3 -13 -1 -16 5 -4 6 -1 9 7 8 7 -2 12
4 10 14 -2 13 24 58 34 58 1 0 0 -33 -2 -72z m-3931 -47 c2 -23 0 -44 -5 -47
-4 -3 -9 9 -9 25 -1 17 -2 37 -3 44 -3 14 4 30 10 24 2 -2 5 -22 7 -46z m3897
-1 c0 -5 -2 -10 -4 -10 -3 0 -8 5 -11 10 -3 6 -1 10 4 10 6 0 11 -4 11 -10z
m-2996 -163 c-1 -41 2 -95 6 -120 4 -26 5 -47 3 -47 -8 0 -24 57 -33 119 -5
36 -13 76 -16 88 -6 20 -2 23 36 32 3 0 5 -32 4 -72z m62 -370 c1 -12 3 -25 3
-28 1 -3 9 -14 19 -25 23 -26 78 -113 59 -94 -36 36 -106 151 -100 166 7 19
16 11 19 -19z m2859 -39 c-8 -29 -15 -54 -15 -55 2 -21 -3 -34 -15 -47 -9 -8
-16 -18 -15 -21 1 -21 -1 -25 -12 -19 -8 5 -9 2 -5 -10 4 -10 3 -15 -3 -11 -6
3 -10 -1 -10 -9 0 -9 -4 -16 -9 -16 -5 0 -12 -11 -15 -25 -4 -14 -11 -25 -16
-25 -12 0 -13 17 -2 22 9 4 76 140 91 186 22 65 34 93 38 88 2 -2 -3 -28 -12
-58z m-3622 -260 c14 -29 37 -72 52 -95 42 -69 21 -49 -28 25 -36 55 -64 122
-51 122 1 0 14 -24 27 -52z m3490 -5 c-4 -11 -3 -14 5 -9 23 14 -38 -107 -74
-147 -20 -22 -54 -78 -76 -124 -21 -45 -42 -83 -46 -83 -4 0 -13 4 -21 9 -12
8 -7 19 25 63 72 96 173 256 166 264 -4 4 -1 3 7 -1 11 -6 13 -4 8 9 -4 10 -5
22 -1 27 9 15 14 10 7 -8z m-1113 -99 c-8 -8 -22 -20 -32 -25 -15 -8 -18 -6
-18 10 0 18 14 27 49 30 11 1 11 -2 1 -15z m-1135 -42 c5 -27 4 -27 -48 0
l-42 22 35 6 c40 7 49 2 55 -28z m-1113 -77 c7 -10 34 -48 61 -83 26 -35 47
-67 47 -71 0 -17 -99 91 -111 122 -7 18 -21 46 -31 62 -10 17 -18 35 -18 40 0
9 11 -6 52 -70z m500 -501 c15 -12 52 -36 81 -53 42 -24 55 -36 55 -55 l0 -24
-32 19 c-17 10 -42 19 -56 19 -28 0 -52 13 -49 26 5 29 -35 73 -110 120 -1 2
0 8 4 14 7 11 35 -7 107 -66z m2353 55 c-4 -5 -12 -9 -18 -9 -16 0 -65 -62
-72 -93 -5 -17 -22 -33 -53 -49 l-47 -25 0 34 c0 25 8 39 30 58 17 13 34 24
38 25 5 0 14 6 22 13 23 22 52 44 71 55 20 11 38 6 29 -9z m-655 -467 l23 -19
-19 -39 c-34 -70 -107 -83 -133 -24 -15 35 -15 35 42 72 51 32 58 33 87 10z"/>
</g>
</svg>
