<?xml version="1.0" encoding="UTF-8" standalone="no"?>
<svg
   xmlns:dc="http://purl.org/dc/elements/1.1/"
   xmlns:cc="http://creativecommons.org/ns#"
   xmlns:rdf="http://www.w3.org/1999/02/22-rdf-syntax-ns#"
   xmlns:svg="http://www.w3.org/2000/svg"
   xmlns="http://www.w3.org/2000/svg"
   xmlns:sodipodi="http://sodipodi.sourceforge.net/DTD/sodipodi-0.dtd"
   xmlns:inkscape="http://www.inkscape.org/namespaces/inkscape"
   version="1.1"
   id="svg10"
   xml:space="preserve"
   width="1024"
   height="1024"
   viewBox="0 0 1024 1024"
   sodipodi:docname="prowlarr (1).svg"
   inkscape:version="0.92.2 (5c3e80d, 2017-08-06)"
   inkscape:export-filename="C:\Users\qstic\source\repos\Prowlarr\Logo\16.png"
   inkscape:export-xdpi="1.5"
   inkscape:export-ydpi="1.5"><metadata
     id="metadata16"><rdf:RDF><cc:Work
         rdf:about=""><dc:format>image/svg+xml</dc:format><dc:type
           rdf:resource="http://purl.org/dc/dcmitype/StillImage" /><dc:title></dc:title></cc:Work></rdf:RDF></metadata><defs
     id="defs14"><clipPath
       clipPathUnits="userSpaceOnUse"
       id="clipPath510"><path
         d="m 1271.06,905.77 c 0,0 0,0 -0.01,0 0.01,0 0.01,0 0.01,0 v 0"
         id="path508" /></clipPath></defs><sodipodi:namedview
     pagecolor="#ffffff"
     bordercolor="#666666"
     borderopacity="1"
     objecttolerance="10"
     gridtolerance="10"
     guidetolerance="10"
     inkscape:pageopacity="0"
     inkscape:pageshadow="2"
     inkscape:window-width="1680"
     inkscape:window-height="997"
     id="namedview12"
     showgrid="false"
     fit-margin-top="0"
     fit-margin-left="0"
     fit-margin-right="0"
     fit-margin-bottom="0"
     inkscape:zoom="0.60971844"
     inkscape:cx="341.56775"
     inkscape:cy="474.60369"
     inkscape:window-x="0"
     inkscape:window-y="25"
     inkscape:window-maximized="1"
     inkscape:current-layer="g18"
     inkscape:document-rotation="0"
     inkscape:pagecheckerboard="false" /><g
     id="g18"
     inkscape:groupmode="layer"
     inkscape:label="ink_ext_XXXXXX"
     transform="matrix(1.3333333,0,0,-1.3333333,198.62766,515.8368)"
     style="display:inline"><g
       id="g2248"
       transform="matrix(4.0960001,0,0,4.0960001,425.09731,-1123.3485)"><circle
         style="fill:#ffe6d5;fill-opacity:1;fill-rule:evenodd;stroke-width:1.68177998"
         id="path2188"
         cx="-46.40332"
         cy="-274.95755"
         transform="scale(1,-1)"
         r="90" /><path
         d="m -108.10156,258.50681 16.177,19.001 121.483,0.403 -15.767,-19.404 h -121.893"
         style="fill:#83331b;fill-opacity:1;fill-rule:nonzero;stroke:none;stroke-width:0.1"
         id="path568"
         inkscape:connector-curvature="0" /><path
         id="path570"
         style="fill:#f8a37b;fill-opacity:1;fill-rule:nonzero;stroke:none;stroke-width:0.133333"
         d="m -144.13477,321.99023 v 68.08399 a 24.036282,10.884353 0 0 1 21.68555,10.82031 H 3.3222656 A 18.14059,11.337869 0 0 1 1.8144531,396.37109 18.14059,11.337869 0 0 1 18.388672,385.07812 v -63.08789 z"
         transform="matrix(0.75000002,0,0,-0.75000002,0,500.00002)"
         inkscape:connector-curvature="0" /><path
         d="m -38.32356,249.89581 c 1.962,1.06 4.991,4.244 3.122,7.428 -0.346,0.589 -0.684,0.968 -1.008,1.183 h 8.145 c -1.06,-2.333 -4.89,-5.155 -4.89,-5.155 0,0 -0.313,-0.606 -2.011,-1.941 -0.961,-0.754 -2.341,-1.237 -3.358,-1.515 m -24.041,0.131 c -1.001,0.465 -2.455,1.262 -3.478,2.348 -1.708,1.813 -2.052,4.191 -2.052,4.191 l -1.208,1.941 h 4.853 c -0.324,-0.215 -0.661,-0.594 -1.007,-1.183 -1.797,-3.062 0.935,-6.124 2.892,-7.297 m 22.287,0.961 c -1.065,0.104 -3.04,0.372 -5.015,1.03 -2.911,0.97 -4.609,3.153 -4.609,3.153 0,0 -3.275,-2.001 -7.641,-2.796 -1.458,-0.265 -2.408,-0.354 -3.028,-0.354 -0.01,0 -0.019,0 -0.029,0 -0.087,1.464 -0.387,3.029 -0.387,3.029 0,0 -0.827,2.653 -2.068,3.457 h 5.168 20.083 c -1.241,-0.804 -2.069,-3.457 -2.069,-3.457 0,0 -0.464,-2.425 -0.405,-4.062"
         style="fill:#da845d;fill-opacity:1;fill-rule:nonzero;stroke:none;stroke-width:0.1"
         id="path572"
         inkscape:connector-curvature="0" /><path
         d="m -60.78656,255.04981 c 0,0 0.923,-4.821 0,-5.458 -0.922,-0.637 -6.926,3.548 -4.47,7.732 2.456,4.184 4.47,-2.274 4.47,-2.274"
         style="fill:#dee6e3;fill-opacity:1;fill-rule:nonzero;stroke:none;stroke-width:0.1"
         id="path574"
         inkscape:connector-curvature="0" /><path
         d="m -39.67256,255.04981 c 0,0 -0.922,-4.821 0,-5.458 0.923,-0.637 6.927,3.548 4.471,7.732 -2.456,4.184 -4.471,-2.274 -4.471,-2.274"
         style="fill:#dee6e3;fill-opacity:1;fill-rule:nonzero;stroke:none;stroke-width:0.1"
         id="path576"
         inkscape:connector-curvature="0" /><path
         d="m -75.27356,295.45981 c 1.117,-5.335 -2.302,-10.566 -7.637,-11.683 -5.335,-1.117 -10.565,2.302 -11.682,7.637 -1.117,5.335 2.302,10.566 7.637,11.683 5.335,1.117 10.565,-2.302 11.682,-7.637"
         style="fill:#d4541e;fill-opacity:1;fill-rule:nonzero;stroke:none;stroke-width:0.1"
         id="path578"
         inkscape:connector-curvature="0" /><path
         d="m -79.13656,301.41081 c -2.176,1.581 -4.979,2.281 -7.819,1.686 -5.335,-1.117 -8.754,-6.348 -7.637,-11.683 0.243,-1.161 0.69,-2.224 1.282,-3.177 4.349,1.479 10.933,5.007 14.174,13.174"
         style="fill:#852e1b;fill-opacity:1;fill-rule:nonzero;stroke:none;stroke-width:0.1"
         id="path580"
         inkscape:connector-curvature="0" /><path
         d="m -79.55556,294.56281 c 0.621,-2.97 -1.282,-5.881 -4.252,-6.503 -2.969,-0.622 -5.881,1.281 -6.503,4.251 -0.622,2.97 1.282,5.881 4.251,6.503 2.97,0.622 5.882,-1.281 6.504,-4.251"
         style="fill:#ffffff;fill-opacity:1;fill-rule:nonzero;stroke:none;stroke-width:0.1"
         id="path582"
         inkscape:connector-curvature="0" /><path
         d="m -11.97056,297.29481 c -2.292,0 -4.427,1.456 -5.185,3.752 -0.941,2.854 0.602,5.932 3.449,6.887 1.578,0.545 9.258,3.6 6.96,10.765 -1.66,5.18 -4.8,5.934 -14.08,6.919 -1.702,0.18 -3.461,0.368 -5.289,0.629 -6.567,0.938 -11.396,3.654 -14.351,8.072 -4.312,6.445 -2.622,13.751 -2.415,14.562 0.744,2.922 3.717,4.683 6.64,3.943 2.922,-0.745 4.687,-3.718 3.942,-6.64 0.002,0 -0.74,-3.391 0.946,-5.845 1.168,-1.701 3.45,-2.804 6.783,-3.281 1.632,-0.233 3.292,-0.409 4.897,-0.58 8.623,-0.915 19.355,-2.056 23.327,-14.443 4.228,-13.187 -6.004,-21.855 -13.912,-24.464 -0.568,-0.187 -1.145,-0.276 -1.712,-0.276"
         style="fill:#e2591e;fill-opacity:1;fill-rule:nonzero;stroke:none;stroke-width:0.1"
         id="path584"
         inkscape:connector-curvature="0" /><path
         d="m -31.35356,340.33881 -0.162,0.262 c -3.6,-2.3 -8.146,-2.791 -10.691,-2.868 0.426,-1.138 0.987,-2.289 1.74,-3.414 0.966,-1.445 2.153,-2.688 3.516,-3.766 4.784,0.793 8.636,4.38 10.757,6.815 -2.455,0.573 -4.194,1.564 -5.16,2.971"
         style="fill:#852e1b;fill-opacity:1;fill-rule:nonzero;stroke:none;stroke-width:0.1"
         id="path588"
         inkscape:connector-curvature="0" /><path
         d="m -19.75856,325.50081 c 3.913,-0.433 6.655,-0.862 8.622,-1.688 1.349,2.24 3.232,5.957 3.93,10.147 -2.897,1.167 -6.016,1.739 -9.03,2.126 0.263,-2.716 0.078,-7.398 -3.522,-10.585"
         style="fill:#852e1b;fill-opacity:1;fill-rule:nonzero;stroke:none;stroke-width:0.1"
         id="path590"
         inkscape:connector-curvature="0" /><path
         d="m 4.15644,311.99081 c 0.613,2.488 0.673,5.256 -0.025,8.278 -1.075,-0.869 -2.457,-1.657 -4.202,-2.11 -2.954,-0.768 -5.066,-0.721 -6.408,-0.509 0.581,-2.947 -0.577,-5.128 -2.15,-6.674 4.852,-2.119 9.593,-0.653 12.785,1.015"
         style="fill:#852e1b;fill-opacity:1;fill-rule:nonzero;stroke:none;stroke-width:0.1"
         id="path592"
         inkscape:connector-curvature="0" /><path
         d="m -6.44656,314.85681 c -0.003,10e-4 -0.006,0.003 -0.009,0.004 0.012,0.064 0.024,0.128 0.034,0.193 l 0.001,0.002 0.028,0.238 c 0.031,0.251 0.052,0.506 0.056,0.77 l 0.001,0.16 c -0.004,0.338 -0.027,0.685 -0.081,1.047 l 10e-4,-10e-4 c -0.066,0.45 -0.167,0.916 -0.322,1.404 0.111,-0.352 0.199,-0.693 0.265,-1.025 -0.002,0 -0.004,0 -0.006,10e-4 0.201,-1.021 0.194,-1.95 0.032,-2.793 m -0.292,3.82 c -0.003,0.007 -0.005,0.015 -0.008,0.022 -0.856,2.671 -2.105,4.165 -4.386,5.121 v 0 c 2.281,-0.956 3.53,-2.45 4.386,-5.121 0.003,-0.007 0.005,-0.015 0.008,-0.022 m -13.018,6.825 c -0.347,0.039 -0.704,0.077 -1.07,0.116 -1.702,0.18 -3.461,0.368 -5.29,0.629 -0.048,0.007 -0.097,0.014 -0.146,0.022 0.049,-0.008 0.098,-0.015 0.147,-0.022 1.828,-0.261 3.587,-0.449 5.289,-0.629 0.366,-0.039 0.723,-0.077 1.07,-0.116 v 0 m -6.54,0.772 c -0.007,10e-4 -0.015,0.002 -0.023,0.003 0.008,-0.001 0.015,-0.002 0.023,-0.003 m -0.075,0.011 c -0.001,0 -0.002,0 -0.003,0 0,0 0.002,0 0.003,0"
         style="fill:#83bad2;fill-opacity:1;fill-rule:nonzero;stroke:none;stroke-width:0.1"
         id="path594"
         inkscape:connector-curvature="0" /><path
         d="m 3.32344,309.50681 c -0.608,0.453 -1.229,0.89 -1.865,1.311 0.962,0.334 1.851,0.733 2.646,1.146 0.013,-0.008 0.025,-0.017 0.037,-0.026 -0.211,-0.844 -0.488,-1.653 -0.818,-2.431 m -7.988,8.008 c -0.71,0 -1.312,0.056 -1.808,0.134 -0.066,0.332 -0.154,0.673 -0.265,1.025 -10e-4,10e-4 -10e-4,0.002 -10e-4,0.003 -0.003,0.007 -0.005,0.015 -0.008,0.022 -0.856,2.671 -2.105,4.165 -4.386,5.121 0.494,0.82 1.059,1.839 1.612,3.006 2.749,-1.108 4.625,-2.821 6.016,-5.603 0.566,-1.131 0.757,-2.351 0.695,-3.592 -0.685,-0.082 -1.303,-0.116 -1.855,-0.116 m -15.092,7.987 c -0.347,0.039 -0.704,0.077 -1.07,0.116 -1.702,0.18 -3.461,0.368 -5.289,0.629 -0.049,0.007 -0.098,0.014 -0.147,0.022 -0.011,0.001 -0.023,0.003 -0.034,0.005 -0.008,10e-4 -0.015,0.002 -0.023,0.003 -0.018,0.003 -0.035,0.005 -0.052,0.008 -0.001,0 -0.003,0 -0.003,0 -4.878,0.737 -8.769,2.481 -11.64,5.178 0.341,-0.316 0.696,-0.619 1.064,-0.91 0.568,0.094 1.123,0.228 1.664,0.394 2.752,-0.893 6.221,-1.645 10.437,-1.887 2.795,-0.16 5.246,-0.326 7.403,-0.556 -0.54,-1.068 -1.287,-2.095 -2.31,-3.002"
         style="fill:#ba4a1f;fill-opacity:1;fill-rule:nonzero;stroke:none;stroke-width:0.1"
         id="path596"
         inkscape:connector-curvature="0" /><path
         d="m -36.95056,330.55281 c -0.368,0.291 -0.723,0.594 -1.064,0.91 -0.306,0.287 -0.6,0.585 -0.883,0.893 1.024,-0.474 2.227,-0.959 3.611,-1.409 -0.541,-0.166 -1.096,-0.3 -1.664,-0.394"
         style="fill:#6f2717;fill-opacity:1;fill-rule:nonzero;stroke:none;stroke-width:0.1"
         id="path598"
         inkscape:connector-curvature="0" /><path
         d="m -11.13256,323.81981 c -1.97,0.825 -4.707,1.249 -8.624,1.682 v 0 c 1.023,0.907 1.77,1.934 2.31,3.002 3.255,-0.346 5.842,-0.838 7.926,-1.678 -0.553,-1.167 -1.118,-2.186 -1.612,-3.006 v 0"
         style="fill:#6f2717;fill-opacity:1;fill-rule:nonzero;stroke:none;stroke-width:0.1"
         id="path600"
         inkscape:connector-curvature="0" /><path
         d="m 1.45844,310.81781 c -2.431,1.612 -5.063,2.99 -7.905,4.039 0.162,0.843 0.169,1.772 -0.032,2.793 0.002,-10e-4 0.004,-10e-4 0.006,-10e-4 0.496,-0.078 1.098,-0.134 1.808,-0.134 0.552,0 1.17,0.034 1.855,0.116 -0.027,-0.549 -0.104,-1.101 -0.219,-1.652 2.551,-1.103 4.934,-2.454 7.133,-4.015 -0.795,-0.413 -1.684,-0.812 -2.646,-1.146"
         style="fill:#6f2717;fill-opacity:1;fill-rule:nonzero;stroke:none;stroke-width:0.1"
         id="path602"
         inkscape:connector-curvature="0" /><path
         d="m 1.95644,321.13981 c 0,0 -4.428,6.195 -10.044,9.266 0.233,0.715 0.442,1.456 0.617,2.217 0.927,-0.436 1.771,-0.935 2.477,-1.507 4.964,-4.019 6.95,-9.976 6.95,-9.976 m -18.127,12.572 c -3.248,1.173 -5.535,1.865 -5.535,1.865 0,0 2.427,-0.091 5.54,-0.568 0.014,-0.409 0.015,-0.844 -0.005,-1.297"
         style="fill:#e66733;fill-opacity:1;fill-rule:nonzero;stroke:none;stroke-width:0.1"
         id="path604"
         inkscape:connector-curvature="0" /><path
         d="m -8.08756,330.40581 c -0.478,0.261 -0.964,0.5 -1.456,0.71 -2.364,1.009 -4.67,1.89 -6.627,2.596 0.02,0.453 0.019,0.888 0.005,1.297 2.763,-0.423 6.066,-1.15 8.695,-2.386 -0.175,-0.761 -0.384,-1.502 -0.617,-2.217"
         style="fill:#94401d;fill-opacity:1;fill-rule:nonzero;stroke:none;stroke-width:0.1"
         id="path606"
         inkscape:connector-curvature="0" /><path
         d="m -57.68656,303.78381 c 0,0 14.474,17.064 43.825,12.94 29.351,-4.124 40.267,-42.45 40.267,-42.45 l -12.614,-15.767 h -71.478 v 45.277"
         style="fill:#ef5d22;fill-opacity:1;fill-rule:nonzero;stroke:none;stroke-width:0.1"
         id="path608"
         inkscape:connector-curvature="0" /><path
         d="m -53.06456,307.88981 c 3.118,0.854 8.074,1.536 15.715,1.011 18.532,-1.273 42.591,-30.99 42.591,-30.99 0,0 -10.668,33.893 -44.619,36.942 -6.085,-1.951 -10.642,-4.693 -13.687,-6.963"
         style="fill:#852e1b;fill-opacity:1;fill-rule:nonzero;stroke:none;stroke-width:0.1"
         id="path610"
         inkscape:connector-curvature="0" /><path
         d="m 5.02844,263.29881 h -4.184 c -1.15,3.215 -6.923,18.376 -16.161,26.318 -7.613,6.544 -18.654,14.166 -32.41,14.879 0.704,0.036 1.401,0.054 2.092,0.054 9.919,0 18.501,-3.657 25.49,-8.144 0.021,0.129 0.034,0.258 0.061,0.388 0.293,1.403 0.874,2.67 1.665,3.758 5.534,-3.983 10.713,-8.764 14.808,-12.906 -0.999,-0.954 -2.191,-1.692 -3.497,-2.159 6.883,-8.215 11.163,-19.471 12.136,-22.188 m -6.338,27.706 c -2.837,4.334 -6.709,9.107 -11.819,13.25 0.149,0.042 0.3,0.08 0.451,0.116 l 0.167,0.041 c 0.259,0.056 0.521,0.099 0.786,0.134 l 0.227,0.033 c 0.249,0.027 0.501,0.04 0.754,0.048 0.091,0.003 0.181,0.012 0.273,0.012 0.008,0 0.015,0 0.023,0 0.245,0 0.492,-0.016 0.74,-0.034 0.09,-0.006 0.18,-0.006 0.271,-0.015 0.344,-0.035 0.689,-0.086 1.035,-0.159 5.335,-1.117 8.754,-6.347 7.637,-11.682 -0.117,-0.56 -0.289,-1.092 -0.492,-1.606 l -0.034,-0.091 c -0.006,-0.016 -0.012,-0.031 -0.019,-0.047"
         style="fill:#c74d1f;fill-opacity:1;fill-rule:nonzero;stroke:none;stroke-width:0.1"
         id="path612"
         inkscape:connector-curvature="0" /><path
         d="m -3.61056,287.64581 c -4.095,4.142 -9.274,8.923 -14.808,12.906 0.616,0.847 1.361,1.585 2.198,2.193 v 0 c 0.269,0.196 0.548,0.378 0.835,0.545 l 0.017,0.01 c 0.278,0.161 0.564,0.309 0.857,0.443 l 0.053,0.025 c 0.278,0.125 0.562,0.236 0.852,0.335 l 0.105,0.038 c 0.124,0.04 0.248,0.078 0.373,0.114 5.11,-4.143 8.982,-8.916 11.819,-13.25 -0.207,-0.503 -0.456,-0.98 -0.737,-1.433 v -0.001 c -0.442,-0.711 -0.969,-1.357 -1.564,-1.925"
         style="fill:#6f2717;fill-opacity:1;fill-rule:nonzero;stroke:none;stroke-width:0.1"
         id="path614"
         inkscape:connector-curvature="0" /><path
         d="m -24.26856,296.79381 c -1.117,-5.335 2.303,-10.565 7.637,-11.682 5.335,-1.117 10.566,2.302 11.683,7.637 1.117,5.335 -2.302,10.565 -7.637,11.682 -5.335,1.117 -10.565,-2.302 -11.683,-7.637"
         style="fill:#d4541e;fill-opacity:1;fill-rule:nonzero;stroke:none;stroke-width:0.1"
         id="path616"
         inkscape:connector-curvature="0" /><path
         d="m -20.40556,302.74481 c 2.176,1.581 4.98,2.281 7.82,1.686 5.335,-1.117 8.754,-6.347 7.637,-11.682 -0.243,-1.162 -0.691,-2.225 -1.282,-3.178 -4.35,1.48 -10.934,5.007 -14.175,13.174"
         style="fill:#852e1b;fill-opacity:1;fill-rule:nonzero;stroke:none;stroke-width:0.1"
         id="path618"
         inkscape:connector-curvature="0" /><path
         d="m -19.98556,295.89681 c -0.622,-2.969 1.282,-5.881 4.251,-6.503 2.97,-0.622 5.881,1.282 6.503,4.251 0.622,2.97 -1.281,5.882 -4.251,6.504 -2.97,0.621 -5.881,-1.282 -6.503,-4.252"
         style="fill:#ffffff;fill-opacity:1;fill-rule:nonzero;stroke:none;stroke-width:0.1"
         id="path620"
         inkscape:connector-curvature="0" /><path
         d="m -95.60856,258.50681 -4.852,4.94 c 0,0 15.465,31.449 36.75,38.724 21.286,7.276 38.024,-3.64 48.394,-12.554 10.37,-8.915 16.373,-26.926 16.373,-26.926 l -3.82,-4.184 h -92.845"
         style="fill:#f46a2f;fill-opacity:1;fill-rule:nonzero;stroke:none;stroke-width:0.1"
         id="path622"
         inkscape:connector-curvature="0" /><path
         d="m -71.12356,289.57081 c 0,0 17.435,13.737 20.853,13.737 3.419,0 20.078,-12.054 20.078,-12.054 l -2.762,-3.317 c 0,0 -14.548,11.807 -17.316,11.807 -2.768,0 -16.459,-11.807 -16.459,-11.807 l -4.394,1.634"
         style="fill:#852e1b;fill-opacity:1;fill-rule:nonzero;stroke:none;stroke-width:0.1"
         id="path624"
         inkscape:connector-curvature="0" /><path
         d="m -62.48456,284.29281 c 0,0 10.016,8.491 12.885,8.491 2.869,0 12.401,-7.399 12.401,-7.399 l -2.597,-5.067 c 0,0 -7.579,8.22 -9.804,8.22 -2.225,0 -10.777,-7.641 -10.777,-7.641 l -2.108,3.396"
         style="fill:#852e1b;fill-opacity:1;fill-rule:nonzero;stroke:none;stroke-width:0.1"
         id="path626"
         inkscape:connector-curvature="0" /><path
         d="m -100.46056,263.44681 13.49,4.52 c 0,0 -4.302,14.009 8.251,20.74 12.553,6.731 18.102,-0.182 19.83,-4.184 1.729,-4.003 1.729,-14.555 1.729,-14.555 h 14.954 c 0,0 -0.157,15.707 6.271,20.194 6.428,4.488 16.095,5.094 19.873,-3.274 3.778,-8.369 0,-15.646 0,-15.646 l 17.119,-8.551 -3.82,-4.184 h -92.845 l -4.852,4.94"
         style="fill:#ffffff;fill-opacity:1;fill-rule:nonzero;stroke:none;stroke-width:0.1"
         id="path628"
         inkscape:connector-curvature="0" /><path
         d="m -60.78656,277.91081 c 0,-3.282 -2.66,-5.943 -5.943,-5.943 -3.282,0 -5.943,2.661 -5.943,5.943 0,3.282 2.661,5.943 5.943,5.943 3.283,0 5.943,-2.661 5.943,-5.943"
         style="fill:#fddd04;fill-opacity:1;fill-rule:nonzero;stroke:none;stroke-width:0.1"
         id="path630"
         inkscape:connector-curvature="0" /><path
         d="m -62.48456,277.91081 c 0,-2.344 -1.901,-4.245 -4.245,-4.245 -2.344,0 -4.244,1.901 -4.244,4.245 0,2.344 1.9,4.244 4.244,4.244 2.344,0 4.245,-1.9 4.245,-4.244"
         style="fill:#391913;fill-opacity:1;fill-rule:nonzero;stroke:none;stroke-width:0.1"
         id="path632"
         inkscape:connector-curvature="0" /><path
         d="m -67.62156,280.55381 c 0,-0.967 -0.784,-1.751 -1.751,-1.751 -0.967,0 -1.751,0.784 -1.751,1.751 0,0.967 0.784,1.751 1.751,1.751 0.967,0 1.751,-0.784 1.751,-1.751"
         style="fill:#ffffff;fill-opacity:1;fill-rule:nonzero;stroke:none;stroke-width:0.1"
         id="path634"
         inkscape:connector-curvature="0" /><path
         d="m -27.01156,277.91081 c 0,-3.282 -2.661,-5.943 -5.943,-5.943 -3.282,0 -5.943,2.661 -5.943,5.943 0,3.282 2.661,5.943 5.943,5.943 3.282,0 5.943,-2.661 5.943,-5.943"
         style="fill:#fddd04;fill-opacity:1;fill-rule:nonzero;stroke:none;stroke-width:0.1"
         id="path636"
         inkscape:connector-curvature="0" /><path
         d="m -28.70956,277.91081 c 0,-2.344 -1.901,-4.245 -4.245,-4.245 -2.344,0 -4.244,1.901 -4.244,4.245 0,2.344 1.9,4.244 4.244,4.244 2.344,0 4.245,-1.9 4.245,-4.244"
         style="fill:#391913;fill-opacity:1;fill-rule:nonzero;stroke:none;stroke-width:0.1"
         id="path638"
         inkscape:connector-curvature="0" /><path
         d="m -33.84656,280.55381 c 0,-0.967 -0.784,-1.751 -1.752,-1.751 -0.967,0 -1.751,0.784 -1.751,1.751 0,0.967 0.784,1.751 1.751,1.751 0.968,0 1.752,-0.784 1.752,-1.751"
         style="fill:#ffffff;fill-opacity:1;fill-rule:nonzero;stroke:none;stroke-width:0.1"
         id="path640"
         inkscape:connector-curvature="0" /><path
         d="m 13.79144,258.50681 h -12.371 l 3.821,4.184 c 0,0 -0.072,0.214 -0.213,0.608 h 8.763 l 11.536,14.197 c 0.723,-1.989 1.073,-3.206 1.078,-3.222 v 0 0 l -12.614,-15.767"
         style="fill:#c74d1f;fill-opacity:1;fill-rule:nonzero;stroke:none;stroke-width:0.1"
         id="path642"
         inkscape:connector-curvature="0" /><path
         d="m 1.42044,258.50681 h -4.184 l 3.82,4.184 c 0,0 -0.071,0.214 -0.212,0.608 h 4.184 c 0.141,-0.394 0.213,-0.608 0.213,-0.608 l -3.821,-4.184"
         style="fill:#a33f1e;fill-opacity:1;fill-rule:nonzero;stroke:none;stroke-width:0.1"
         id="path644"
         inkscape:connector-curvature="0" /><path
         d="m 1.05644,262.69081 -1.217,0.608 h 1.005 c 0.141,-0.394 0.212,-0.608 0.212,-0.608 v 0"
         style="fill:#de581d;fill-opacity:1;fill-rule:nonzero;stroke:none;stroke-width:0.1"
         id="path646"
         inkscape:connector-curvature="0" /><path
         d="m -2.76356,258.50681 h -92.845 l -4.706,4.792 h 100.154 l 1.217,-0.608 -3.82,-4.184"
         style="fill:#d5d0cd;fill-opacity:1;fill-rule:nonzero;stroke:none;stroke-width:0.1"
         id="path648"
         inkscape:connector-curvature="0" /><path
         d="m -58.97456,271.48281 c 0,0 -5.68,-1.462 -7.755,-6.855 -2.075,-5.394 0.745,-9.305 5.475,-10.397 4.731,-1.091 11.553,2.456 11.553,2.456 0,0 5.602,-5.458 12.352,-4.093 6.75,1.364 8.934,9.096 5.659,13.736 -3.275,4.639 -11.28,5.153 -11.28,5.153 0,0 -12.179,-3.488 -16.004,0"
         style="fill:#ffffff;fill-opacity:1;fill-rule:nonzero;stroke:none;stroke-width:0.1"
         id="path650"
         inkscape:connector-curvature="0" /><path
         d="m -49.70156,256.68681 c 0,0 0.282,-0.27 0.773,-0.664 v 8.605 c 0,0.37 -0.301,0.671 -0.671,0.671 -0.369,0 -0.671,-0.301 -0.671,-0.671 v -8.217 c 0.356,0.167 0.569,0.276 0.569,0.276"
         style="fill:#a6b9b5;fill-opacity:1;fill-rule:nonzero;stroke:none;stroke-width:0.1"
         id="path652"
         inkscape:connector-curvature="0" /><path
         d="m -42.30556,265.56381 c 0,0 4.394,5.176 1.554,7.403 -2.841,2.228 -5.535,-1.611 -9.101,-1.267 -3.566,0.344 -7.301,3.095 -8.825,0.572 -1.523,-2.522 2.303,-5.562 2.303,-5.562 0,0 0.908,2.659 3.196,1.379 2.289,-1.28 0.361,-3.99 0.361,-3.99 0,0 1.685,-1.104 3.059,-1.331 1.374,-0.228 3.509,1.549 3.509,1.549 0,0 -1.109,3.074 1.246,4.262 2.356,1.189 2.698,-3.015 2.698,-3.015"
         style="fill:#852e1b;fill-opacity:1;fill-rule:nonzero;stroke:none;stroke-width:0.1"
         id="path654"
         inkscape:connector-curvature="0" /><path
         d="m -85.90456,281.52781 c 0,0 -3.367,-4.374 -3.094,-10.832 0.273,-6.459 9.56,-12.189 9.56,-12.189 l -3.656,5.688 c -0.913,1.42 -0.603,3.3 0.717,4.353 l 5.659,4.513 c 0,0 -7.641,-2.456 -8.914,-0.637 -1.274,1.82 -0.272,9.104 -0.272,9.104"
         style="fill:#852e1b;fill-opacity:1;fill-rule:nonzero;stroke:none;stroke-width:0.1"
         id="path656"
         inkscape:connector-curvature="0" /><path
         d="m -15.45756,285.37981 c 0,0 -0.525,-5.679 -1.92,-8.498 -1.396,-2.82 -6.217,-1.547 -6.217,-1.547 0,0 5.367,-2.729 5.367,-4.457 0,-1.729 -3.639,-7.186 -3.639,-7.186 0,0 11.817,7.446 6.409,21.688"
         style="fill:#852e1b;fill-opacity:1;fill-rule:nonzero;stroke:none;stroke-width:0.1"
         id="path658"
         inkscape:connector-curvature="0" /><path
         d="m -86.02656,258.50681 c 0,0 -2.365,1.758 -3.882,4.245 -1.516,2.486 -2.001,4.002 -2.001,4.002 0,0 -0.182,-3.275 0.728,-5.458 0.91,-2.183 1.637,-2.789 1.637,-2.789 h 3.518"
         style="fill:#852e1b;fill-opacity:1;fill-rule:nonzero;stroke:none;stroke-width:0.1"
         id="path660"
         inkscape:connector-curvature="0" /><path
         d="m -13.74056,258.50681 c 0,0 2.209,1.81 4.124,5.185 1.915,3.374 2.608,7.791 2.608,7.791 0,0 0.909,-6.366 0.303,-9.095 -0.607,-2.729 -1.577,-3.881 -1.577,-3.881 h -5.458"
         style="fill:#852e1b;fill-opacity:1;fill-rule:nonzero;stroke:none;stroke-width:0.1"
         id="path662"
         inkscape:connector-curvature="0" /><path
         d="m -4.78756,314.17381 c -2.809,1.198 -5.822,2.093 -9.074,2.55 -2.707,0.38 -5.285,0.578 -7.739,0.628 4.835,-1.15 14.841,-4.264 22.793,-11.581 10.901,-10.029 15.146,-19.22 15.146,-19.22 0,0 -6.557,18.098 -21.126,27.623"
         style="fill:#852e1b;fill-opacity:1;fill-rule:nonzero;stroke:none;stroke-width:0.1"
         id="path664"
         inkscape:connector-curvature="0" /><path
         d="m 1.95644,301.95081 c 0,0 7.105,-5.586 11.35,-16.571 4.245,-10.985 4.124,-13.897 4.124,-13.897 l -18.072,22.682 12.008,-11.037 c 0,0 -0.486,6.443 -9.41,18.823"
         style="fill:#852e1b;fill-opacity:1;fill-rule:nonzero;stroke:none;stroke-width:0.1"
         id="path666"
         inkscape:connector-curvature="0" /><path
         id="path668"
         style="fill:#f6854f;fill-opacity:1;fill-rule:nonzero;stroke:none;stroke-width:0.133333"
         d="m 39.412109,296.11914 -21.023437,25.87109 v 59.92579 a 9.2970522,17.233561 0 0 1 5.419922,-3.23047 9.2970522,17.233561 0 0 1 5.197265,2.94336 l 10.40625,-18.88477 z"
         transform="matrix(0.75000002,0,0,-0.75000002,0,500.00002)"
         inkscape:connector-curvature="0" /><path
         d="m -3.30956,240.43481 h 7.034 v 5.97 h 3.188 l -6.705,7.626 -6.705,-7.626 h 3.188 v -5.97"
         style="fill:#852e1b;fill-opacity:1;fill-rule:nonzero;stroke:none;stroke-width:0.1"
         id="path670"
         inkscape:connector-curvature="0" /><path
         d="m 0.20744,238.61981 h -6.705 v -2.309 h 13.41 v 2.309 h -6.705 v 0"
         style="fill:#852e1b;fill-opacity:1;fill-rule:nonzero;stroke:none;stroke-width:0.1"
         id="path672"
         inkscape:connector-curvature="0" /><path
         d="m -4.28656,310.01981 c -3.321,1.214 -7.933,2.459 -13.091,2.58 -0.665,0.016 -1.339,0.023 -2.015,0.023 -2.736,0 -5.535,-0.12 -8.147,-0.292 -1.365,0.475 -2.782,0.899 -4.25,1.261 3.254,0.749 7.275,1.374 11.627,1.374 1.151,0 2.323,-0.044 3.511,-0.14 1.663,-0.135 3.198,-0.364 4.61,-0.658 2.489,-1.076 5.144,-2.437 7.755,-4.148"
         style="fill:#f06c34;fill-opacity:1;fill-rule:nonzero;stroke:none;stroke-width:0.1"
         id="path674"
         inkscape:connector-curvature="0" /><path
         d="m -39.79556,311.08381 c 0,0 3.151,1.392 8.006,2.508 1.468,-0.362 2.885,-0.786 4.25,-1.261 -6.75,-0.447 -12.256,-1.247 -12.256,-1.247"
         style="fill:#94401d;fill-opacity:1;fill-rule:nonzero;stroke:none;stroke-width:0.1"
         id="path676"
         inkscape:connector-curvature="0" /><path
         d="m 1.05644,307.62781 c 0,0 -2.028,1.18 -5.343,2.392 -2.611,1.711 -5.266,3.072 -7.755,4.148 9.116,-1.899 13.098,-6.54 13.098,-6.54"
         style="fill:#94401d;fill-opacity:1;fill-rule:nonzero;stroke:none;stroke-width:0.1"
         id="path678"
         inkscape:connector-curvature="0" /><path
         id="path1131"
         style="display:inline;fill:#e66001;fill-opacity:1;fill-rule:evenodd;stroke-width:0.69136697"
         d="m -46.403322,368.70754 a 93.750002,93.750002 0 0 1 -93.749998,-93.75001 93.750002,93.750002 0 0 1 93.749998,-93.75 93.750002,93.750002 0 0 1 93.750003,93.75 93.750002,93.750002 0 0 1 -93.750003,93.75001 z m 0,-18.75 a 75,75 0 0 0 75.000002,-75.00001 75,75 0 0 0 -75.000002,-75 75,75 0 0 0 -74.999998,75 75,75 0 0 0 74.999998,75.00001 z"
         inkscape:connector-curvature="0" /><path
         d="m -31.35356,340.33881 c -1.686,2.454 -0.944,5.845 -0.946,5.845 0.745,2.922 -1.02,5.895 -3.942,6.64 -2.923,0.74 -5.896,-1.021 -6.64,-3.943 -0.2,-0.781 -1.757,-7.578 1.972,-13.834 2.907,0.545 7.163,1.779 10.204,4.534 -0.24,0.239 -0.463,0.488 -0.648,0.758"
         style="display:inline;fill:#ffffff;fill-opacity:1;fill-rule:nonzero;stroke:none;stroke-width:0.1"
         id="path586"
         inkscape:connector-curvature="0" /></g></g></svg>
